ISO-10303-21;
HEADER;
FILE_DESCRIPTION(('FreeCAD Model'),'2;1');
FILE_NAME('Open CASCADE Shape Model','2026-04-27T14:15:19',(''),(''),
  'Open CASCADE STEP processor 7.8','FreeCAD','Unknown');
FILE_SCHEMA(('AUTOMOTIVE_DESIGN { 1 0 10303 214 1 1 1 1 }'));
ENDSEC;
DATA;
#1 = APPLICATION_PROTOCOL_DEFINITION('international standard',
  'automotive_design',2000,#2);
#2 = APPLICATION_CONTEXT(
  'core data for automotive mechanical design processes');
#3 = SHAPE_DEFINITION_REPRESENTATION(#4,#10);
#4 = PRODUCT_DEFINITION_SHAPE('','',#5);
#5 = PRODUCT_DEFINITION('design','',#6,#9);
#6 = PRODUCT_DEFINITION_FORMATION('','',#7);
#7 = PRODUCT('Model_Nose_V2','Model_Nose_V2','',(#8));
#8 = PRODUCT_CONTEXT('',#2,'mechanical');
#9 = PRODUCT_DEFINITION_CONTEXT('part definition',#2,'design');
#10 = ADVANCED_BREP_SHAPE_REPRESENTATION('',(#11,#15),#1025);
#11 = AXIS2_PLACEMENT_3D('',#12,#13,#14);
#12 = CARTESIAN_POINT('',(0.,0.,0.));
#13 = DIRECTION('',(0.,0.,1.));
#14 = DIRECTION('',(1.,0.,-0.));
#15 = MANIFOLD_SOLID_BREP('',#16);
#16 = CLOSED_SHELL('',(#17,#795,#861,#915,#969,#997));
#17 = ADVANCED_FACE('',(#18),#253,.F.);
#18 = FACE_BOUND('',#19,.F.);
#19 = EDGE_LOOP('',(#20,#748,#794));
#20 = ORIENTED_EDGE('',*,*,#21,.F.);
#21 = EDGE_CURVE('',#22,#22,#24,.T.);
#22 = VERTEX_POINT('',#23);
#23 = CARTESIAN_POINT('',(23.751387417306,4.307299180827,463.03691620722
    ));
#24 = SURFACE_CURVE('',#25,(#252,#513),.PCURVE_S1.);
#25 = B_SPLINE_CURVE_WITH_KNOTS('',8,(#26,#27,#28,#29,#30,#31,#32,#33,
    #34,#35,#36,#37,#38,#39,#40,#41,#42,#43,#44,#45,#46,#47,#48,#49,#50,
    #51,#52,#53,#54,#55,#56,#57,#58,#59,#60,#61,#62,#63,#64,#65,#66,#67,
    #68,#69,#70,#71,#72,#73,#74,#75,#76,#77,#78,#79,#80,#81,#82,#83,#84,
    #85,#86,#87,#88,#89,#90,#91,#92,#93,#94,#95,#96,#97,#98,#99,#100,
    #101,#102,#103,#104,#105,#106,#107,#108,#109,#110,#111,#112,#113,
    #114,#115,#116,#117,#118,#119,#120,#121,#122,#123,#124,#125,#126,
    #127,#128,#129,#130,#131,#132,#133,#134,#135,#136,#137,#138,#139,
    #140,#141,#142,#143,#144,#145,#146,#147,#148,#149,#150,#151,#152,
    #153,#154,#155,#156,#157,#158,#159,#160,#161,#162,#163,#164,#165,
    #166,#167,#168,#169,#170,#171,#172,#173,#174,#175,#176,#177,#178,
    #179,#180,#181,#182,#183,#184,#185,#186,#187,#188,#189,#190,#191,
    #192,#193,#194,#195,#196,#197,#198,#199,#200,#201,#202,#203,#204,
    #205,#206,#207,#208,#209,#210,#211,#212,#213,#214,#215,#216,#217,
    #218,#219,#220,#221,#222,#223,#224,#225,#226,#227,#228,#229,#230,
    #231,#232,#233,#234,#235,#236,#237,#238,#239,#240,#241,#242,#243,
    #244,#245,#246,#247,#248,#249,#250,#251),.UNSPECIFIED.,.T.,.F.,(9,7,
    7,7,7,7,7,7,7,7,7,7,7,7,7,7,7,7,7,7,7,7,7,7,7,7,7,7,7,7,7,7,9),(0.,
    2.900042879543E-02,5.800085759087E-02,8.700128638631E-02,
    0.116001715182,0.145002143977,0.174002572773,0.202002986781,
    0.231003415577,0.260003844372,0.287004243594,0.316004672389,
    0.345005101184,0.37400552998,0.403005958775,0.432006387571,
    0.461006816366,0.490007245162,0.519007673957,0.547008087966,
    0.576008516761,0.60400893077,0.632009344778,0.661009773573,
    0.690010202369,0.719010631164,0.74801105996,0.777011488755,
    0.806011917551,0.835012346346,0.864012775142,0.893013203937,1.),
  .UNSPECIFIED.);
#26 = CARTESIAN_POINT('',(23.751387417306,4.307299180818,463.03691620722
    ));
#27 = CARTESIAN_POINT('',(23.751386759799,4.849672790424,463.03691620722
    ));
#28 = CARTESIAN_POINT('',(23.737267858931,5.392047447847,463.03691620984
    ));
#29 = CARTESIAN_POINT('',(23.709030804656,5.933992862756,463.03691621507
    ));
#30 = CARTESIAN_POINT('',(23.666691245671,6.475080166273,463.03691622292
    ));
#31 = CARTESIAN_POINT('',(23.610280389424,7.014881910971,463.03691623338
    ));
#32 = CARTESIAN_POINT('',(23.539845002108,7.552972070878,463.03691624643
    ));
#33 = CARTESIAN_POINT('',(23.455447408662,8.088926041473,463.03691626208
    ));
#34 = CARTESIAN_POINT('',(23.25888362205,9.15571524623,463.03691629851)
  );
#35 = CARTESIAN_POINT('',(23.146717042721,9.68655257617,463.0369163193)
  );
#36 = CARTESIAN_POINT('',(23.020743814338,10.214409478849,
    463.03691634265));
#37 = CARTESIAN_POINT('',(22.88105704005,10.738867020859,463.03691636854
    ));
#38 = CARTESIAN_POINT('',(22.727764866609,11.259510486047,
    463.03691639695));
#39 = CARTESIAN_POINT('',(22.560990484365,11.775929375517,
    463.03691642786));
#40 = CARTESIAN_POINT('',(22.380872127266,12.287717407629,
    463.03691646125));
#41 = CARTESIAN_POINT('',(21.99425406137,13.301227644734,463.03691653291
    ));
#42 = CARTESIAN_POINT('',(21.787753593035,13.802951840835,
    463.03691657119));
#43 = CARTESIAN_POINT('',(21.568215112487,14.299243105653,
    463.03691661188));
#44 = CARTESIAN_POINT('',(21.335806094723,14.789706311962,
    463.03691665495));
#45 = CARTESIAN_POINT('',(21.090708045103,15.273953205967,
    463.03691670038));
#46 = CARTESIAN_POINT('',(20.83311649935,15.751602407298,463.03691674813
    ));
#47 = CARTESIAN_POINT('',(20.563241023556,16.222279409011,
    463.03691679815));
#48 = CARTESIAN_POINT('',(19.999369444027,17.148953770042,
    463.03691690266));
#49 = CARTESIAN_POINT('',(19.705372232529,17.604952949875,
    463.03691695716));
#50 = CARTESIAN_POINT('',(19.3995373289,18.053246576527,463.03691701384)
  );
#51 = CARTESIAN_POINT('',(19.082101034952,18.493476411461,
    463.03691707268));
#52 = CARTESIAN_POINT('',(18.753312205087,18.92529351816,463.03691713362
    ));
#53 = CARTESIAN_POINT('',(18.413432246296,19.348358262126,
    463.03691719662));
#54 = CARTESIAN_POINT('',(18.062735118163,19.762340310887,
    463.03691726162));
#55 = CARTESIAN_POINT('',(17.340279581818,20.571496987679,
    463.03691739553));
#56 = CARTESIAN_POINT('',(16.968519754293,20.966673205353,
    463.03691746444));
#57 = CARTESIAN_POINT('',(16.586514495852,21.352126375659,
    463.03691753524));
#58 = CARTESIAN_POINT('',(16.194561111267,21.727547009872,
    463.03691760789));
#59 = CARTESIAN_POINT('',(15.792967564513,22.092637041902,
    463.03691768233));
#60 = CARTESIAN_POINT('',(15.382052478773,22.447109828284,
    463.03691775849));
#61 = CARTESIAN_POINT('',(14.962145136431,22.790690148187,
    463.03691783632));
#62 = CARTESIAN_POINT('',(14.105025849878,23.455538294918,
    463.03691799519));
#63 = CARTESIAN_POINT('',(13.667812221798,23.776807427885,
    463.03691807623));
#64 = CARTESIAN_POINT('',(13.222284646034,24.086657945407,
    463.03691815881));
#65 = CARTESIAN_POINT('',(12.768791586677,24.384839355621,
    463.03691824286));
#66 = CARTESIAN_POINT('',(12.307689920719,24.671114331705,
    463.03691832833));
#67 = CARTESIAN_POINT('',(11.839344938046,24.945258711877,
    463.03691841514));
#68 = CARTESIAN_POINT('',(11.364130341442,25.207061499394,
    463.03691850322));
#69 = CARTESIAN_POINT('',(10.417336541043,25.696992997609,
    463.03691867871));
#70 = CARTESIAN_POINT('',(9.946195364105,25.925972460403,463.03691876603
    ));
#71 = CARTESIAN_POINT('',(9.469348636698,26.143085365877,463.03691885442
    ));
#72 = CARTESIAN_POINT('',(8.987145436202,26.34816638928,463.03691894379)
  );
#73 = CARTESIAN_POINT('',(8.499939996461,26.541062766163,463.0369190341)
  );
#74 = CARTESIAN_POINT('',(8.008091707778,26.721634292386,463.03691912526
    ));
#75 = CARTESIAN_POINT('',(7.511965116916,26.88975332411,463.03691921722)
  );
#76 = CARTESIAN_POINT('',(6.494036401974,27.206411664777,463.03691940589
    ));
#77 = CARTESIAN_POINT('',(5.971948170988,27.354037852976,463.03691950266
    ));
#78 = CARTESIAN_POINT('',(5.446076129842,27.488055614173,463.03691960014
    ));
#79 = CARTESIAN_POINT('',(4.916834438538,27.608352498866,463.03691969823
    ));
#80 = CARTESIAN_POINT('',(4.384640521376,27.71483133628,463.03691979687)
  );
#81 = CARTESIAN_POINT('',(3.849915066956,27.807410234366,463.03691989599
    ));
#82 = CARTESIAN_POINT('',(3.31308202818,27.886022579801,463.03691999549)
  );
#83 = CARTESIAN_POINT('',(2.236055221783,28.015211541774,463.03692019512
    ));
#84 = CARTESIAN_POINT('',(1.695859338271,28.065788412113,463.03692029524
    ));
#85 = CARTESIAN_POINT('',(1.154408210208,28.102296491961,463.0369203956)
  );
#86 = CARTESIAN_POINT('',(0.612129517759,28.124700241572,463.03692049611
    ));
#87 = CARTESIAN_POINT('',(6.945138275395E-02,28.132979738504,
    463.0369205967));
#88 = CARTESIAN_POINT('',(-0.473197631307,28.127130677611,
    463.03692069728));
#89 = CARTESIAN_POINT('',(-1.01538851926,28.10716437105,463.03692079778)
  );
#90 = CARTESIAN_POINT('',(-2.060663984128,28.041399888356,
    463.03692099152));
#91 = CARTESIAN_POINT('',(-2.563868430191,27.99747809601,463.03692108479
    ));
#92 = CARTESIAN_POINT('',(-3.065958762911,27.941364224272,
    463.03692117785));
#93 = CARTESIAN_POINT('',(-3.566590299844,27.873091737868,
    463.03692127064));
#94 = CARTESIAN_POINT('',(-4.065420085656,27.792705713217,463.0369213631
    ));
#95 = CARTESIAN_POINT('',(-4.562106892117,27.700262838429,
    463.03692145516));
#96 = CARTESIAN_POINT('',(-5.056311218107,27.595831413305,
    463.03692154677));
#97 = CARTESIAN_POINT('',(-6.075478090032,27.354533564559,
    463.03692173567));
#98 = CARTESIAN_POINT('',(-6.600009216089,27.215837096781,
    463.03692183289));
#99 = CARTESIAN_POINT('',(-7.120869973625,27.06350116788,463.03692192943
    ));
#100 = CARTESIAN_POINT('',(-7.637646636268,26.897639812437,
    463.03692202522));
#101 = CARTESIAN_POINT('',(-8.14993044543,26.71838187774,463.03692212017
    ));
#102 = CARTESIAN_POINT('',(-8.657317610308,26.525871023781,
    463.03692221422));
#103 = CARTESIAN_POINT('',(-9.159409307882,26.320265723258,
    463.03692230728));
#104 = CARTESIAN_POINT('',(-10.15221407646,25.883212841924,
    463.0369224913));
#105 = CARTESIAN_POINT('',(-10.64292909789,25.651764402494,
    463.03692258225));
#106 = CARTESIAN_POINT('',(-11.12756296404,25.407567392355,
    463.03692267208));
#107 = CARTESIAN_POINT('',(-11.6057294614,25.150808927872,
    463.03692276071));
#108 = CARTESIAN_POINT('',(-12.07704994617,24.881689792704,
    463.03692284807));
#109 = CARTESIAN_POINT('',(-12.54115334425,24.600424437802,
    463.03692293409));
#110 = CARTESIAN_POINT('',(-12.99767615121,24.30724098141,
    463.03692301871));
#111 = CARTESIAN_POINT('',(-13.89484873925,23.697521474711,463.036923185
    ));
#112 = CARTESIAN_POINT('',(-14.3355002829,23.380984226567,
    463.03692326667));
#113 = CARTESIAN_POINT('',(-14.76786122904,23.053011398077,
    463.03692334681));
#114 = CARTESIAN_POINT('',(-15.19158566443,22.713856992045,
    463.03692342535));
#115 = CARTESIAN_POINT('',(-15.6063375968,22.363787080634,
    463.03692350223));
#116 = CARTESIAN_POINT('',(-16.01179095485,22.003079805374,
    463.03692357738));
#117 = CARTESIAN_POINT('',(-16.40762958823,21.632025377154,
    463.03692365075));
#118 = CARTESIAN_POINT('',(-17.17946497918,20.869826807975,
    463.03692379381));
#119 = CARTESIAN_POINT('',(-17.55546325309,20.478681169627,
    463.0369238635));
#120 = CARTESIAN_POINT('',(-17.92123598556,20.077791568672,
    463.03692393129));
#121 = CARTESIAN_POINT('',(-18.27648901666,19.667470484423,
    463.03692399714));
#122 = CARTESIAN_POINT('',(-18.62094013019,19.248040468012,
    463.03692406099));
#123 = CARTESIAN_POINT('',(-18.95431905375,18.819834142391,
    463.03692412278));
#124 = CARTESIAN_POINT('',(-19.27636745868,18.383194202331,
    463.03692418247));
#125 = CARTESIAN_POINT('',(-19.8973104992,17.493752652805,
    463.03692429756));
#126 = CARTESIAN_POINT('',(-20.19620635467,17.040949295971,
    463.03692435296));
#127 = CARTESIAN_POINT('',(-20.48328028827,16.580416212878,
    463.03692440617));
#128 = CARTESIAN_POINT('',(-20.75829963286,16.112514013284,
    463.03692445715));
#129 = CARTESIAN_POINT('',(-21.02104529241,15.637611047753,
    463.03692450585));
#130 = CARTESIAN_POINT('',(-21.271311742,15.156083407652,463.03692455224
    ));
#131 = CARTESIAN_POINT('',(-21.50890702784,14.668314925149,
    463.03692459627));
#132 = CARTESIAN_POINT('',(-21.95839854843,13.681079440318,
    463.03692467959));
#133 = CARTESIAN_POINT('',(-22.17029566624,13.181610498499,
    463.03692471886));
#134 = CARTESIAN_POINT('',(-22.36916590072,12.676681994834,
    463.03692475572));
#135 = CARTESIAN_POINT('',(-22.55484578105,12.166690729889,
    463.03692479014));
#136 = CARTESIAN_POINT('',(-22.72718658555,11.652038657721,
    463.03692482208));
#137 = CARTESIAN_POINT('',(-22.88605434165,11.133132885881,
    463.03692485153));
#138 = CARTESIAN_POINT('',(-23.03132982589,10.610385675411,
    463.03692487846));
#139 = CARTESIAN_POINT('',(-23.29448734659,9.55804321742,463.03692492723
    ));
#140 = CARTESIAN_POINT('',(-23.41236990004,9.028445902501,
    463.03692494908));
#141 = CARTESIAN_POINT('',(-23.51645192347,8.495839954005,
    463.03692496837));
#142 = CARTESIAN_POINT('',(-23.60664455484,7.960645225399,
    463.03692498509));
#143 = CARTESIAN_POINT('',(-23.68287437091,7.423283965702,
    463.03692499922));
#144 = CARTESIAN_POINT('',(-23.74508338724,6.884180819483,
    463.03692501075));
#145 = CARTESIAN_POINT('',(-23.79322905816,6.343762826862,
    463.03692501968));
#146 = CARTESIAN_POINT('',(-23.86133954136,5.261156023045,463.0369250323
    ));
#147 = CARTESIAN_POINT('',(-23.88130448744,4.718965084994,463.036925036)
  );
#148 = CARTESIAN_POINT('',(-23.8871521867,4.176316056258,463.03692503708
    ));
#149 = CARTESIAN_POINT('',(-23.87887132806,3.63363794203,463.03692503555
    ));
#150 = CARTESIAN_POINT('',(-23.85646621774,3.091359305798,463.0369250314
    ));
#151 = CARTESIAN_POINT('',(-23.81995677927,2.549908269344,
    463.03692502463));
#152 = CARTESIAN_POINT('',(-23.76937855345,2.009712512743,
    463.03692501525));
#153 = CARTESIAN_POINT('',(-23.64241432089,0.951255401156,
    463.03692499172));
#154 = CARTESIAN_POINT('',(-23.5669781623,0.432878136064,463.03692497774
    ));
#155 = CARTESIAN_POINT('',(-23.47852040958,-8.354808436554E-02,
    463.03692496134));
#156 = CARTESIAN_POINT('',(-23.37710053644,-0.597641618716,
    463.03692494254));
#157 = CARTESIAN_POINT('',(-23.26279130334,-1.109023620701,
    463.03692492136));
#158 = CARTESIAN_POINT('',(-23.13567875745,-1.617318039164,
    463.0369248978));
#159 = CARTESIAN_POINT('',(-22.99586223272,-2.122151618079,
    463.03692487188));
#160 = CARTESIAN_POINT('',(-22.68560338446,-3.142049073951,
    463.03692481438));
#161 = CARTESIAN_POINT('',(-22.51424502056,-3.65683633438,
    463.03692478261));
#162 = CARTESIAN_POINT('',(-22.32950457425,-4.167104040071,
    463.03692474837));
#163 = CARTESIAN_POINT('',(-22.13152183318,-4.672446441339,
    463.03692471168));
#164 = CARTESIAN_POINT('',(-21.92045105654,-5.172463676575,
    463.03692467255));
#165 = CARTESIAN_POINT('',(-21.6964609751,-5.666761772249,
    463.03692463104));
#166 = CARTESIAN_POINT('',(-21.45973479112,-6.154952642913,
    463.03692458716));
#167 = CARTESIAN_POINT('',(-20.96980090944,-7.101745209949,
    463.03692449635));
#168 = CARTESIAN_POINT('',(-20.71744216143,-7.560788416293,
    463.03692444957));
#169 = CARTESIAN_POINT('',(-20.45357194903,-8.013439856335,
    463.03692440067));
#170 = CARTESIAN_POINT('',(-20.17837975075,-8.459362951425,
    463.03692434966));
#171 = CARTESIAN_POINT('',(-19.89206650901,-8.89822839815,
    463.03692429659));
#172 = CARTESIAN_POINT('',(-19.59484463012,-9.329714168336,
    463.0369242415));
#173 = CARTESIAN_POINT('',(-19.28693798432,-9.753505509048,
    463.03692418443));
#174 = CARTESIAN_POINT('',(-18.65022585676,-10.58508439875,
    463.03692406641));
#175 = CARTESIAN_POINT('',(-18.32141928778,-10.99287336769,
    463.03692400547));
#176 = CARTESIAN_POINT('',(-17.98239764803,-11.39235445978,
    463.03692394263));
#177 = CARTESIAN_POINT('',(-17.63340640029,-11.7832294548,
    463.03692387794));
#178 = CARTESIAN_POINT('',(-17.274701021,-12.16520930191,463.03692381146
    ));
#179 = CARTESIAN_POINT('',(-16.9065470002,-12.53801411965,
    463.03692374322));
#180 = CARTESIAN_POINT('',(-16.52921984157,-12.90137319598,
    463.03692367328));
#181 = CARTESIAN_POINT('',(-15.74299696677,-13.62130719611,
    463.03692352755));
#182 = CARTESIAN_POINT('',(-15.33345358542,-13.97717772197,
    463.03692345164));
#183 = CARTESIAN_POINT('',(-14.91469232388,-14.32234604295,
    463.03692337403));
#184 = CARTESIAN_POINT('',(-14.48704004664,-14.65653407093,
    463.03692329476));
#185 = CARTESIAN_POINT('',(-14.05083307719,-14.97947615257,
    463.03692321391));
#186 = CARTESIAN_POINT('',(-13.60641719803,-15.29091906921,
    463.03692313154));
#187 = CARTESIAN_POINT('',(-13.15414765063,-15.59062203695,
    463.03692304771));
#188 = CARTESIAN_POINT('',(-12.23463064468,-16.16609141525,
    463.03692287727));
#189 = CARTESIAN_POINT('',(-11.76738137967,-16.44185895635,
    463.03692279067));
#190 = CARTESIAN_POINT('',(-11.29300613579,-16.70543113235,
    463.03692270274));
#191 = CARTESIAN_POINT('',(-10.81187675752,-16.95659368858,
    463.03692261356));
#192 = CARTESIAN_POINT('',(-10.32437213852,-17.19514631326,
    463.03692252321));
#193 = CARTESIAN_POINT('',(-9.83087822161,-17.4209026375,463.03692243174
    ));
#194 = CARTESIAN_POINT('',(-9.331787998727,-17.63369023536,
    463.03692233923));
#195 = CARTESIAN_POINT('',(-8.323215040173,-18.03301105483,
    463.03692215229));
#196 = CARTESIAN_POINT('',(-7.813730323093,-18.21954506095,
    463.03692205785));
#197 = CARTESIAN_POINT('',(-7.299447466701,-18.3927943253,
    463.03692196253));
#198 = CARTESIAN_POINT('',(-6.780770983867,-18.5526155205,
    463.03692186639));
#199 = CARTESIAN_POINT('',(-6.258109793383,-18.69888030862,
    463.03692176952));
#200 = CARTESIAN_POINT('',(-5.731877219965,-18.83147534114,
    463.03692167198));
#201 = CARTESIAN_POINT('',(-5.202490994252,-18.95030225897,
    463.03692157386));
#202 = CARTESIAN_POINT('',(-4.138255520249,-19.16025317101,
    463.0369213766));
#203 = CARTESIAN_POINT('',(-3.603404181197,-19.25137757768,
    463.03692127747));
#204 = CARTESIAN_POINT('',(-3.066241406823,-19.32856771826,
    463.0369211779));
#205 = CARTESIAN_POINT('',(-2.527190985116,-19.39175593819,
    463.03692107799));
#206 = CARTESIAN_POINT('',(-1.986678320874,-19.44089012259,
    463.0369209778));
#207 = CARTESIAN_POINT('',(-1.445130435713,-19.47593369621,
    463.03692087743));
#208 = CARTESIAN_POINT('',(-0.902975968059,-19.4968656235,
    463.03692077694));
#209 = CARTESIAN_POINT('',(0.181685621175,-19.51049523948,
    463.03692057589));
#210 = CARTESIAN_POINT('',(0.724194873647,-19.50319295496,
    463.03692047534));
#211 = CARTESIAN_POINT('',(1.266452326775,-19.48176823786,
    463.03692037483));
#212 = CARTESIAN_POINT('',(1.808028948899,-19.44623134647,
    463.03692027445));
#213 = CARTESIAN_POINT('',(2.34849693419,-19.39660811444,463.03692017427
    ));
#214 = CARTESIAN_POINT('',(2.887429702646,-19.33293995081,
    463.03692007438));
#215 = CARTESIAN_POINT('',(3.424401900095,-19.25528384002,
    463.03691997485));
#216 = CARTESIAN_POINT('',(4.493576904043,-19.07214088895,
    463.03691977668));
#217 = CARTESIAN_POINT('',(5.025781811009,-18.96665368888,
    463.03691967804));
#218 = CARTESIAN_POINT('',(5.555180020937,-18.84732347771,
    463.03691957991));
#219 = CARTESIAN_POINT('',(6.081351463561,-18.71423808689,
    463.03691948238));
#220 = CARTESIAN_POINT('',(6.603880096495,-18.5675004433,463.03691938553
    ));
#221 = CARTESIAN_POINT('',(7.12235390524,-18.40722856922,463.03691928943
    ));
#222 = CARTESIAN_POINT('',(7.636364903179,-18.23355558234,
    463.03691919416));
#223 = CARTESIAN_POINT('',(8.654653375812,-17.85970385224,
    463.03691900542));
#224 = CARTESIAN_POINT('',(9.158932851001,-17.65952437457,
    463.03691891195));
#225 = CARTESIAN_POINT('',(9.657943660049,-17.44623964369,
    463.03691881946));
#226 = CARTESIAN_POINT('',(10.151288602432,-17.22001215617,
    463.03691872802));
#227 = CARTESIAN_POINT('',(10.638577174205,-16.98101852425,
    463.0369186377));
#228 = CARTESIAN_POINT('',(11.119425568001,-16.72944947576,
    463.03691854857));
#229 = CARTESIAN_POINT('',(11.593456673029,-16.46550985417,
    463.03691846071));
#230 = CARTESIAN_POINT('',(12.527143500505,-15.91332742255,
    463.03691828765));
#231 = CARTESIAN_POINT('',(12.986801057245,-15.62508352772,
    463.03691820245));
#232 = CARTESIAN_POINT('',(13.438902422114,-15.32490604712,
    463.03691811865));
#233 = CARTESIAN_POINT('',(13.883086415481,-15.01302676227,
    463.03691803632));
#234 = CARTESIAN_POINT('',(14.319001001265,-14.68969012317,
    463.03691795553));
#235 = CARTESIAN_POINT('',(14.746303286936,-14.35515324832,
    463.03691787633));
#236 = CARTESIAN_POINT('',(15.164659523513,-14.0096859247,
    463.03691779878));
#237 = CARTESIAN_POINT('',(15.982830717779,-13.29745532548,
    463.03691764713));
#238 = CARTESIAN_POINT('',(16.382647282821,-12.93069065066,
    463.03691757303));
#239 = CARTESIAN_POINT('',(16.772870312677,-12.55355917366,
    463.0369175007));
#240 = CARTESIAN_POINT('',(17.153186607119,-12.16635428672,
    463.03691743021));
#241 = CARTESIAN_POINT('',(17.5232942537,-11.76938018401,463.03691736161
    ));
#242 = CARTESIAN_POINT('',(17.882902627758,-11.36295186157,
    463.03691729495));
#243 = CARTESIAN_POINT('',(18.231732392414,-10.94739511735,
    463.0369172303));
#244 = CARTESIAN_POINT('',(19.815647411958,-8.957561999028,
    463.03691693672));
#245 = CARTESIAN_POINT('',(20.911901318404,-7.271839873103,
    463.03691673352));
#246 = CARTESIAN_POINT('',(21.843983680342,-5.483444269497,
    463.03691656076));
#247 = CARTESIAN_POINT('',(22.60103419094,-3.611227777233,
    463.03691642044));
#248 = CARTESIAN_POINT('',(23.174713523502,-1.674939551601,
    463.03691631411));
#249 = CARTESIAN_POINT('',(23.559246809872,0.304775204672,
    463.03691624284));
#250 = CARTESIAN_POINT('',(23.751389946178,2.306402724559,
    463.03691620722));
#251 = CARTESIAN_POINT('',(23.751387417306,4.307299180818,
    463.03691620722));
#252 = PCURVE('',#253,#284);
#253 = SURFACE_OF_REVOLUTION('',#254,#281);
#254 = B_SPLINE_CURVE_WITH_KNOTS('',3,(#255,#256,#257,#258,#259,#260,
    #261,#262,#263,#264,#265,#266,#267,#268,#269,#270,#271,#272,#273,
    #274,#275,#276,#277,#278,#279,#280),.UNSPECIFIED.,.F.,.F.,(4,1,1,1,1
    ,1,1,1,1,1,1,1,1,1,1,1,1,1,1,1,1,1,1,4),(0.,1.,2.,3.,4.,5.,6.,7.,8.,
    9.,10.,11.,12.,13.,14.,15.,16.,17.,18.,19.,20.,21.,22.,23.),
  .QUASI_UNIFORM_KNOTS.);
#255 = CARTESIAN_POINT('',(4.860370150267,4.30727547987,313.22307991682)
  );
#256 = CARTESIAN_POINT('',(5.425451329722,4.307276188829,319.59977981325
    ));
#257 = CARTESIAN_POINT('',(5.871022721564,4.307276747847,334.35281024708
    ));
#258 = CARTESIAN_POINT('',(6.645078144767,4.30727771899,335.43642627797)
  );
#259 = CARTESIAN_POINT('',(11.035416695346,4.307283227182,
    345.95316479097));
#260 = CARTESIAN_POINT('',(15.363202317512,4.307288656893,
    359.76444800681));
#261 = CARTESIAN_POINT('',(18.056537493525,4.307292035996,
    369.16722420882));
#262 = CARTESIAN_POINT('',(21.135328511082,4.307295898696,
    383.67615617384));
#263 = CARTESIAN_POINT('',(22.8434076547,4.307298041679,395.88001223497)
  );
#264 = CARTESIAN_POINT('',(23.43118659731,4.307298779115,401.9576364747)
  );
#265 = CARTESIAN_POINT('',(24.101245303544,4.30729961978,410.8018962844)
  );
#266 = CARTESIAN_POINT('',(24.137558328566,4.307299665331,
    439.44099526558));
#267 = CARTESIAN_POINT('',(23.799427500837,4.307299241099,
    464.07022202809));
#268 = CARTESIAN_POINT('',(23.352141284984,4.307298679923,
    474.76397318975));
#269 = CARTESIAN_POINT('',(22.343571932407,4.307297414549,
    493.56800255762));
#270 = CARTESIAN_POINT('',(19.389933936704,4.307293708856,
    523.93858688629));
#271 = CARTESIAN_POINT('',(16.419690854353,4.307289982331,
    547.51589871263));
#272 = CARTESIAN_POINT('',(13.228995742188,4.307285979224,
    568.25248533089));
#273 = CARTESIAN_POINT('',(9.902384980232,4.307281805595,586.18241940869
    ));
#274 = CARTESIAN_POINT('',(7.15049685818,4.307278353025,598.81985279095)
  );
#275 = CARTESIAN_POINT('',(5.035101807856,4.307275699012,607.07611381));
#276 = CARTESIAN_POINT('',(3.389156179896,4.307273633978,612.63598804424
    ));
#277 = CARTESIAN_POINT('',(1.982042232297,4.307271868588,615.42392350124
    ));
#278 = CARTESIAN_POINT('',(1.306338708501,4.307271020838,616.24793091914
    ));
#279 = CARTESIAN_POINT('',(0.333891286629,4.307269800789,616.94015075582
    ));
#280 = CARTESIAN_POINT('',(-6.141355540325E-02,4.307269304832,
    616.94015082909));
#281 = AXIS1_PLACEMENT('',#282,#283);
#282 = CARTESIAN_POINT('',(-6.141355540325E-02,4.307269304832,
    616.94015082909));
#283 = DIRECTION('',(-1.8535120683E-07,4.047E-14,-1.));
#284 = DEFINITIONAL_REPRESENTATION('',(#285),#512);
#285 = B_SPLINE_CURVE_WITH_KNOTS('',8,(#286,#287,#288,#289,#290,#291,
    #292,#293,#294,#295,#296,#297,#298,#299,#300,#301,#302,#303,#304,
    #305,#306,#307,#308,#309,#310,#311,#312,#313,#314,#315,#316,#317,
    #318,#319,#320,#321,#322,#323,#324,#325,#326,#327,#328,#329,#330,
    #331,#332,#333,#334,#335,#336,#337,#338,#339,#340,#341,#342,#343,
    #344,#345,#346,#347,#348,#349,#350,#351,#352,#353,#354,#355,#356,
    #357,#358,#359,#360,#361,#362,#363,#364,#365,#366,#367,#368,#369,
    #370,#371,#372,#373,#374,#375,#376,#377,#378,#379,#380,#381,#382,
    #383,#384,#385,#386,#387,#388,#389,#390,#391,#392,#393,#394,#395,
    #396,#397,#398,#399,#400,#401,#402,#403,#404,#405,#406,#407,#408,
    #409,#410,#411,#412,#413,#414,#415,#416,#417,#418,#419,#420,#421,
    #422,#423,#424,#425,#426,#427,#428,#429,#430,#431,#432,#433,#434,
    #435,#436,#437,#438,#439,#440,#441,#442,#443,#444,#445,#446,#447,
    #448,#449,#450,#451,#452,#453,#454,#455,#456,#457,#458,#459,#460,
    #461,#462,#463,#464,#465,#466,#467,#468,#469,#470,#471,#472,#473,
    #474,#475,#476,#477,#478,#479,#480,#481,#482,#483,#484,#485,#486,
    #487,#488,#489,#490,#491,#492,#493,#494,#495,#496,#497,#498,#499,
    #500,#501,#502,#503,#504,#505,#506,#507,#508,#509,#510,#511),
  .UNSPECIFIED.,.F.,.F.,(9,7,7,7,7,7,7,7,7,7,7,7,7,7,7,7,7,7,7,7,7,7,7,7
    ,7,7,7,7,7,7,7,7,9),(0.,2.900042879543E-02,5.800085759087E-02,
    8.700128638631E-02,0.116001715182,0.145002143977,0.174002572773,
    0.202002986781,0.231003415577,0.260003844372,0.287004243594,
    0.316004672389,0.345005101184,0.37400552998,0.403005958775,
    0.432006387571,0.461006816366,0.490007245162,0.519007673957,
    0.547008087966,0.576008516761,0.60400893077,0.632009344778,
    0.661009773573,0.690010202369,0.719010631164,0.74801105996,
    0.777011488755,0.806011917551,0.835012346346,0.864012775142,
    0.893013203937,1.),.UNSPECIFIED.);
#286 = CARTESIAN_POINT('',(6.28318530718,11.075138222706));
#287 = CARTESIAN_POINT('',(6.260408760437,11.075138222706));
#288 = CARTESIAN_POINT('',(6.237632213698,11.075138222706));
#289 = CARTESIAN_POINT('',(6.214855666961,11.075138222706));
#290 = CARTESIAN_POINT('',(6.192079120226,11.075138222706));
#291 = CARTESIAN_POINT('',(6.16930257349,11.075138222706));
#292 = CARTESIAN_POINT('',(6.146526026754,11.075138222706));
#293 = CARTESIAN_POINT('',(6.123749480015,11.075138222706));
#294 = CARTESIAN_POINT('',(6.078196386529,11.075138222706));
#295 = CARTESIAN_POINT('',(6.05541983979,11.075138222706));
#296 = CARTESIAN_POINT('',(6.032643293053,11.075138222706));
#297 = CARTESIAN_POINT('',(6.009866746318,11.075138222706));
#298 = CARTESIAN_POINT('',(5.987090199582,11.075138222706));
#299 = CARTESIAN_POINT('',(5.964313652846,11.075138222706));
#300 = CARTESIAN_POINT('',(5.941537106107,11.075138222706));
#301 = CARTESIAN_POINT('',(5.895984012621,11.075138222706));
#302 = CARTESIAN_POINT('',(5.873207465882,11.075138222706));
#303 = CARTESIAN_POINT('',(5.850430919145,11.075138222706));
#304 = CARTESIAN_POINT('',(5.82765437241,11.075138222706));
#305 = CARTESIAN_POINT('',(5.804877825674,11.075138222706));
#306 = CARTESIAN_POINT('',(5.782101278937,11.075138222706));
#307 = CARTESIAN_POINT('',(5.759324732198,11.075138222706));
#308 = CARTESIAN_POINT('',(5.713771638713,11.075138222706));
#309 = CARTESIAN_POINT('',(5.690995091973,11.075138222706));
#310 = CARTESIAN_POINT('',(5.668218545237,11.075138222706));
#311 = CARTESIAN_POINT('',(5.645441998501,11.075138222706));
#312 = CARTESIAN_POINT('',(5.622665451766,11.075138222706));
#313 = CARTESIAN_POINT('',(5.599888905029,11.075138222706));
#314 = CARTESIAN_POINT('',(5.57711235829,11.075138222706));
#315 = CARTESIAN_POINT('',(5.531559264804,11.075138222706));
#316 = CARTESIAN_POINT('',(5.508782718065,11.075138222706));
#317 = CARTESIAN_POINT('',(5.486006171329,11.075138222706));
#318 = CARTESIAN_POINT('',(5.463229624593,11.075138222706));
#319 = CARTESIAN_POINT('',(5.440453077858,11.075138222706));
#320 = CARTESIAN_POINT('',(5.417676531121,11.075138222706));
#321 = CARTESIAN_POINT('',(5.394899984382,11.075138222706));
#322 = CARTESIAN_POINT('',(5.349346890896,11.075138222706));
#323 = CARTESIAN_POINT('',(5.326570344157,11.075138222706));
#324 = CARTESIAN_POINT('',(5.30379379742,11.075138222706));
#325 = CARTESIAN_POINT('',(5.281017250685,11.075138222706));
#326 = CARTESIAN_POINT('',(5.25824070395,11.075138222706));
#327 = CARTESIAN_POINT('',(5.235464157213,11.075138222706));
#328 = CARTESIAN_POINT('',(5.212687610474,11.075138222706));
#329 = CARTESIAN_POINT('',(5.167919915152,11.075138222706));
#330 = CARTESIAN_POINT('',(5.145928766577,11.075138222706));
#331 = CARTESIAN_POINT('',(5.123937618003,11.075138222706));
#332 = CARTESIAN_POINT('',(5.10194646943,11.075138222706));
#333 = CARTESIAN_POINT('',(5.079955320858,11.075138222706));
#334 = CARTESIAN_POINT('',(5.057964172284,11.075138222706));
#335 = CARTESIAN_POINT('',(5.035973023708,11.075138222706));
#336 = CARTESIAN_POINT('',(4.991205328387,11.075138222706));
#337 = CARTESIAN_POINT('',(4.968428781648,11.075138222706));
#338 = CARTESIAN_POINT('',(4.945652234911,11.075138222706));
#339 = CARTESIAN_POINT('',(4.922875688176,11.075138222706));
#340 = CARTESIAN_POINT('',(4.90009914144,11.075138222706));
#341 = CARTESIAN_POINT('',(4.877322594704,11.075138222706));
#342 = CARTESIAN_POINT('',(4.854546047964,11.075138222706));
#343 = CARTESIAN_POINT('',(4.808992954479,11.075138222706));
#344 = CARTESIAN_POINT('',(4.78621640774,11.075138222706));
#345 = CARTESIAN_POINT('',(4.763439861003,11.075138222706));
#346 = CARTESIAN_POINT('',(4.740663314268,11.075138222706));
#347 = CARTESIAN_POINT('',(4.717886767532,11.075138222706));
#348 = CARTESIAN_POINT('',(4.695110220795,11.075138222706));
#349 = CARTESIAN_POINT('',(4.672333674056,11.075138222706));
#350 = CARTESIAN_POINT('',(4.628351376899,11.075138222706));
#351 = CARTESIAN_POINT('',(4.607145626487,11.075138222706));
#352 = CARTESIAN_POINT('',(4.585939876076,11.075138222706));
#353 = CARTESIAN_POINT('',(4.564734125666,11.075138222706));
#354 = CARTESIAN_POINT('',(4.543528375257,11.075138222706));
#355 = CARTESIAN_POINT('',(4.522322624846,11.075138222706));
#356 = CARTESIAN_POINT('',(4.501116874434,11.075138222706));
#357 = CARTESIAN_POINT('',(4.457134577277,11.075138222706));
#358 = CARTESIAN_POINT('',(4.434358030538,11.075138222706));
#359 = CARTESIAN_POINT('',(4.411581483801,11.075138222706));
#360 = CARTESIAN_POINT('',(4.388804937065,11.075138222706));
#361 = CARTESIAN_POINT('',(4.36602839033,11.075138222706));
#362 = CARTESIAN_POINT('',(4.343251843593,11.075138222706));
#363 = CARTESIAN_POINT('',(4.320475296854,11.075138222706));
#364 = CARTESIAN_POINT('',(4.274922203368,11.075138222706));
#365 = CARTESIAN_POINT('',(4.252145656629,11.075138222706));
#366 = CARTESIAN_POINT('',(4.229369109893,11.075138222706));
#367 = CARTESIAN_POINT('',(4.206592563157,11.075138222706));
#368 = CARTESIAN_POINT('',(4.183816016422,11.075138222706));
#369 = CARTESIAN_POINT('',(4.161039469685,11.075138222706));
#370 = CARTESIAN_POINT('',(4.138262922946,11.075138222706));
#371 = CARTESIAN_POINT('',(4.09270982946,11.075138222706));
#372 = CARTESIAN_POINT('',(4.069933282721,11.075138222706));
#373 = CARTESIAN_POINT('',(4.047156735984,11.075138222706));
#374 = CARTESIAN_POINT('',(4.024380189249,11.075138222706));
#375 = CARTESIAN_POINT('',(4.001603642514,11.075138222706));
#376 = CARTESIAN_POINT('',(3.978827095777,11.075138222706));
#377 = CARTESIAN_POINT('',(3.956050549038,11.075138222706));
#378 = CARTESIAN_POINT('',(3.910497455552,11.075138222706));
#379 = CARTESIAN_POINT('',(3.887720908813,11.075138222706));
#380 = CARTESIAN_POINT('',(3.864944362076,11.075138222706));
#381 = CARTESIAN_POINT('',(3.842167815341,11.075138222706));
#382 = CARTESIAN_POINT('',(3.819391268605,11.075138222706));
#383 = CARTESIAN_POINT('',(3.796614721869,11.075138222706));
#384 = CARTESIAN_POINT('',(3.77383817513,11.075138222706));
#385 = CARTESIAN_POINT('',(3.728285081644,11.075138222706));
#386 = CARTESIAN_POINT('',(3.705508534905,11.075138222706));
#387 = CARTESIAN_POINT('',(3.682731988168,11.075138222706));
#388 = CARTESIAN_POINT('',(3.659955441433,11.075138222706));
#389 = CARTESIAN_POINT('',(3.637178894697,11.075138222706));
#390 = CARTESIAN_POINT('',(3.614402347961,11.075138222706));
#391 = CARTESIAN_POINT('',(3.591625801221,11.075138222706));
#392 = CARTESIAN_POINT('',(3.546072707736,11.075138222706));
#393 = CARTESIAN_POINT('',(3.523296160997,11.075138222706));
#394 = CARTESIAN_POINT('',(3.50051961426,11.075138222706));
#395 = CARTESIAN_POINT('',(3.477743067524,11.075138222706));
#396 = CARTESIAN_POINT('',(3.454966520789,11.075138222706));
#397 = CARTESIAN_POINT('',(3.432189974052,11.075138222706));
#398 = CARTESIAN_POINT('',(3.409413427313,11.075138222706));
#399 = CARTESIAN_POINT('',(3.363860333827,11.075138222706));
#400 = CARTESIAN_POINT('',(3.341083787088,11.075138222706));
#401 = CARTESIAN_POINT('',(3.318307240352,11.075138222706));
#402 = CARTESIAN_POINT('',(3.295530693616,11.075138222706));
#403 = CARTESIAN_POINT('',(3.272754146881,11.075138222706));
#404 = CARTESIAN_POINT('',(3.249977600144,11.075138222706));
#405 = CARTESIAN_POINT('',(3.227201053405,11.075138222706));
#406 = CARTESIAN_POINT('',(3.181647959919,11.075138222706));
#407 = CARTESIAN_POINT('',(3.15887141318,11.075138222706));
#408 = CARTESIAN_POINT('',(3.136094866443,11.075138222706));
#409 = CARTESIAN_POINT('',(3.113318319708,11.075138222706));
#410 = CARTESIAN_POINT('',(3.090541772973,11.075138222706));
#411 = CARTESIAN_POINT('',(3.067765226236,11.075138222706));
#412 = CARTESIAN_POINT('',(3.044988679497,11.075138222706));
#413 = CARTESIAN_POINT('',(3.000220984175,11.075138222706));
#414 = CARTESIAN_POINT('',(2.9782298356,11.075138222706));
#415 = CARTESIAN_POINT('',(2.956238687026,11.075138222706));
#416 = CARTESIAN_POINT('',(2.934247538453,11.075138222706));
#417 = CARTESIAN_POINT('',(2.912256389881,11.075138222706));
#418 = CARTESIAN_POINT('',(2.890265241307,11.075138222706));
#419 = CARTESIAN_POINT('',(2.868274092731,11.075138222706));
#420 = CARTESIAN_POINT('',(2.82350639741,11.075138222706));
#421 = CARTESIAN_POINT('',(2.800729850671,11.075138222706));
#422 = CARTESIAN_POINT('',(2.777953303934,11.075138222706));
#423 = CARTESIAN_POINT('',(2.755176757199,11.075138222706));
#424 = CARTESIAN_POINT('',(2.732400210463,11.075138222706));
#425 = CARTESIAN_POINT('',(2.709623663727,11.075138222706));
#426 = CARTESIAN_POINT('',(2.686847116988,11.075138222706));
#427 = CARTESIAN_POINT('',(2.642079421666,11.075138222706));
#428 = CARTESIAN_POINT('',(2.620088273091,11.075138222706));
#429 = CARTESIAN_POINT('',(2.598097124517,11.075138222706));
#430 = CARTESIAN_POINT('',(2.576105975944,11.075138222706));
#431 = CARTESIAN_POINT('',(2.554114827371,11.075138222706));
#432 = CARTESIAN_POINT('',(2.532123678798,11.075138222706));
#433 = CARTESIAN_POINT('',(2.510132530222,11.075138222706));
#434 = CARTESIAN_POINT('',(2.466150233065,11.075138222706));
#435 = CARTESIAN_POINT('',(2.444159084489,11.075138222706));
#436 = CARTESIAN_POINT('',(2.422167935916,11.075138222706));
#437 = CARTESIAN_POINT('',(2.400176787343,11.075138222706));
#438 = CARTESIAN_POINT('',(2.37818563877,11.075138222706));
#439 = CARTESIAN_POINT('',(2.356194490197,11.075138222706));
#440 = CARTESIAN_POINT('',(2.334203341621,11.075138222706));
#441 = CARTESIAN_POINT('',(2.2894356463,11.075138222706));
#442 = CARTESIAN_POINT('',(2.266659099561,11.075138222706));
#443 = CARTESIAN_POINT('',(2.243882552824,11.075138222706));
#444 = CARTESIAN_POINT('',(2.221106006089,11.075138222706));
#445 = CARTESIAN_POINT('',(2.198329459353,11.075138222706));
#446 = CARTESIAN_POINT('',(2.175552912616,11.075138222706));
#447 = CARTESIAN_POINT('',(2.152776365877,11.075138222706));
#448 = CARTESIAN_POINT('',(2.107223272392,11.075138222706));
#449 = CARTESIAN_POINT('',(2.084446725652,11.075138222706));
#450 = CARTESIAN_POINT('',(2.061670178916,11.075138222706));
#451 = CARTESIAN_POINT('',(2.03889363218,11.075138222706));
#452 = CARTESIAN_POINT('',(2.016117085445,11.075138222706));
#453 = CARTESIAN_POINT('',(1.993340538708,11.075138222706));
#454 = CARTESIAN_POINT('',(1.970563991969,11.075138222706));
#455 = CARTESIAN_POINT('',(1.925010898483,11.075138222706));
#456 = CARTESIAN_POINT('',(1.902234351744,11.075138222706));
#457 = CARTESIAN_POINT('',(1.879457805008,11.075138222706));
#458 = CARTESIAN_POINT('',(1.856681258272,11.075138222706));
#459 = CARTESIAN_POINT('',(1.833904711537,11.075138222706));
#460 = CARTESIAN_POINT('',(1.8111281648,11.075138222706));
#461 = CARTESIAN_POINT('',(1.788351618061,11.075138222706));
#462 = CARTESIAN_POINT('',(1.742798524575,11.075138222706));
#463 = CARTESIAN_POINT('',(1.720021977836,11.075138222706));
#464 = CARTESIAN_POINT('',(1.697245431099,11.075138222706));
#465 = CARTESIAN_POINT('',(1.674468884364,11.075138222706));
#466 = CARTESIAN_POINT('',(1.651692337628,11.075138222706));
#467 = CARTESIAN_POINT('',(1.628915790892,11.075138222706));
#468 = CARTESIAN_POINT('',(1.606139244153,11.075138222706));
#469 = CARTESIAN_POINT('',(1.560586150667,11.075138222706));
#470 = CARTESIAN_POINT('',(1.537809603928,11.075138222706));
#471 = CARTESIAN_POINT('',(1.515033057191,11.075138222706));
#472 = CARTESIAN_POINT('',(1.492256510456,11.075138222706));
#473 = CARTESIAN_POINT('',(1.46947996372,11.075138222706));
#474 = CARTESIAN_POINT('',(1.446703416984,11.075138222706));
#475 = CARTESIAN_POINT('',(1.423926870244,11.075138222706));
#476 = CARTESIAN_POINT('',(1.378373776759,11.075138222706));
#477 = CARTESIAN_POINT('',(1.35559723002,11.075138222706));
#478 = CARTESIAN_POINT('',(1.332820683283,11.075138222706));
#479 = CARTESIAN_POINT('',(1.310044136547,11.075138222706));
#480 = CARTESIAN_POINT('',(1.287267589812,11.075138222706));
#481 = CARTESIAN_POINT('',(1.264491043075,11.075138222706));
#482 = CARTESIAN_POINT('',(1.241714496336,11.075138222706));
#483 = CARTESIAN_POINT('',(1.19616140285,11.075138222706));
#484 = CARTESIAN_POINT('',(1.173384856111,11.075138222706));
#485 = CARTESIAN_POINT('',(1.150608309375,11.075138222706));
#486 = CARTESIAN_POINT('',(1.127831762639,11.075138222706));
#487 = CARTESIAN_POINT('',(1.105055215904,11.075138222706));
#488 = CARTESIAN_POINT('',(1.082278669167,11.075138222706));
#489 = CARTESIAN_POINT('',(1.059502122428,11.075138222706));
#490 = CARTESIAN_POINT('',(1.013949028942,11.075138222706));
#491 = CARTESIAN_POINT('',(0.991172482203,11.075138222706));
#492 = CARTESIAN_POINT('',(0.968395935466,11.075138222706));
#493 = CARTESIAN_POINT('',(0.945619388731,11.075138222706));
#494 = CARTESIAN_POINT('',(0.922842841996,11.075138222706));
#495 = CARTESIAN_POINT('',(0.900066295259,11.075138222706));
#496 = CARTESIAN_POINT('',(0.87728974852,11.075138222706));
#497 = CARTESIAN_POINT('',(0.831736655034,11.075138222706));
#498 = CARTESIAN_POINT('',(0.808960108295,11.075138222706));
#499 = CARTESIAN_POINT('',(0.786183561558,11.075138222706));
#500 = CARTESIAN_POINT('',(0.763407014823,11.075138222706));
#501 = CARTESIAN_POINT('',(0.740630468087,11.075138222706));
#502 = CARTESIAN_POINT('',(0.717853921351,11.075138222706));
#503 = CARTESIAN_POINT('',(0.695077374612,11.075138222706));
#504 = CARTESIAN_POINT('',(0.58827483713,11.075138222706));
#505 = CARTESIAN_POINT('',(0.504218202889,11.075138222706));
#506 = CARTESIAN_POINT('',(0.420177584664,11.075138222706));
#507 = CARTESIAN_POINT('',(0.336150413935,11.075138222706));
#508 = CARTESIAN_POINT('',(0.252123243205,11.075138222706));
#509 = CARTESIAN_POINT('',(0.168082624981,11.075138222706));
#510 = CARTESIAN_POINT('',(8.402599073928E-02,11.075138222706));
#511 = CARTESIAN_POINT('',(4.1389E-13,11.075138222706));
#512 = ( GEOMETRIC_REPRESENTATION_CONTEXT(2) 
PARAMETRIC_REPRESENTATION_CONTEXT() REPRESENTATION_CONTEXT('2D SPACE',''
  ) );
#513 = PCURVE('',#514,#519);
#514 = PLANE('',#515);
#515 = AXIS2_PLACEMENT_3D('',#516,#517,#518);
#516 = CARTESIAN_POINT('',(-6.117682331427E-02,-5.217730694828,
    463.03692062091));
#517 = DIRECTION('',(1.853512062945E-07,-3.99016765199E-14,1.));
#518 = DIRECTION('',(2.152760554264E-07,1.,-3.970465959014E-23));
#519 = DEFINITIONAL_REPRESENTATION('',(#520),#747);
#520 = B_SPLINE_CURVE_WITH_KNOTS('',8,(#521,#522,#523,#524,#525,#526,
    #527,#528,#529,#530,#531,#532,#533,#534,#535,#536,#537,#538,#539,
    #540,#541,#542,#543,#544,#545,#546,#547,#548,#549,#550,#551,#552,
    #553,#554,#555,#556,#557,#558,#559,#560,#561,#562,#563,#564,#565,
    #566,#567,#568,#569,#570,#571,#572,#573,#574,#575,#576,#577,#578,
    #579,#580,#581,#582,#583,#584,#585,#586,#587,#588,#589,#590,#591,
    #592,#593,#594,#595,#596,#597,#598,#599,#600,#601,#602,#603,#604,
    #605,#606,#607,#608,#609,#610,#611,#612,#613,#614,#615,#616,#617,
    #618,#619,#620,#621,#622,#623,#624,#625,#626,#627,#628,#629,#630,
    #631,#632,#633,#634,#635,#636,#637,#638,#639,#640,#641,#642,#643,
    #644,#645,#646,#647,#648,#649,#650,#651,#652,#653,#654,#655,#656,
    #657,#658,#659,#660,#661,#662,#663,#664,#665,#666,#667,#668,#669,
    #670,#671,#672,#673,#674,#675,#676,#677,#678,#679,#680,#681,#682,
    #683,#684,#685,#686,#687,#688,#689,#690,#691,#692,#693,#694,#695,
    #696,#697,#698,#699,#700,#701,#702,#703,#704,#705,#706,#707,#708,
    #709,#710,#711,#712,#713,#714,#715,#716,#717,#718,#719,#720,#721,
    #722,#723,#724,#725,#726,#727,#728,#729,#730,#731,#732,#733,#734,
    #735,#736,#737,#738,#739,#740,#741,#742,#743,#744,#745,#746),
  .UNSPECIFIED.,.F.,.F.,(9,7,7,7,7,7,7,7,7,7,7,7,7,7,7,7,7,7,7,7,7,7,7,7
    ,7,7,7,7,7,7,7,7,9),(0.,2.900042879543E-02,5.800085759087E-02,
    8.700128638631E-02,0.116001715182,0.145002143977,0.174002572773,
    0.202002986781,0.231003415577,0.260003844372,0.287004243594,
    0.316004672389,0.345005101184,0.37400552998,0.403005958775,
    0.432006387571,0.461006816366,0.490007245162,0.519007673957,
    0.547008087966,0.576008516761,0.60400893077,0.632009344778,
    0.661009773573,0.690010202369,0.719010631164,0.74801105996,
    0.777011488755,0.806011917551,0.835012346346,0.864012775142,
    0.893013203937,1.),.UNSPECIFIED.);
#521 = CARTESIAN_POINT('',(9.52503500192,-23.8125621901));
#522 = CARTESIAN_POINT('',(10.067408611527,-23.81256141584));
#523 = CARTESIAN_POINT('',(10.609783265911,-23.79844239821));
#524 = CARTESIAN_POINT('',(11.151728674741,-23.77020522727));
#525 = CARTESIAN_POINT('',(11.692815969142,-23.7278655518));
#526 = CARTESIAN_POINT('',(12.232617701697,-23.67145457935));
#527 = CARTESIAN_POINT('',(12.77070784644,-23.60101907619));
#528 = CARTESIAN_POINT('',(13.306661798867,-23.51662136737));
#529 = CARTESIAN_POINT('',(14.373450961308,-23.3200573511));
#530 = CARTESIAN_POINT('',(14.904288267102,-23.2078906575));
#531 = CARTESIAN_POINT('',(15.432145142662,-23.08191731548));
#532 = CARTESIAN_POINT('',(15.9566026546,-22.94223042829));
#533 = CARTESIAN_POINT('',(16.477246086788,-22.78893814276));
#534 = CARTESIAN_POINT('',(16.993664940356,-22.62216364935));
#535 = CARTESIAN_POINT('',(17.505452933693,-22.44204518207));
#536 = CARTESIAN_POINT('',(18.518963087567,-22.05542689799));
#537 = CARTESIAN_POINT('',(19.020687239215,-21.84892632165));
#538 = CARTESIAN_POINT('',(19.516978456771,-21.62938773426));
#539 = CARTESIAN_POINT('',(20.007441613048,-21.39697861091));
#540 = CARTESIAN_POINT('',(20.491688454289,-21.15188045704));
#541 = CARTESIAN_POINT('',(20.969337600167,-20.89428880846));
#542 = CARTESIAN_POINT('',(21.440014543782,-20.62441323134));
#543 = CARTESIAN_POINT('',(22.366688783425,-20.06054145233));
#544 = CARTESIAN_POINT('',(22.822687899967,-19.76654414266));
#545 = CARTESIAN_POINT('',(23.270981460781,-19.46070914253));
#546 = CARTESIAN_POINT('',(23.711211227378,-19.14327275381));
#547 = CARTESIAN_POINT('',(24.143028263296,-18.81448383098));
#548 = CARTESIAN_POINT('',(24.566092934095,-18.47460378112));
#549 = CARTESIAN_POINT('',(24.980074907359,-18.12390656386));
#550 = CARTESIAN_POINT('',(25.789231428623,-17.40145085332));
#551 = CARTESIAN_POINT('',(26.184407566267,-17.02969094073));
#552 = CARTESIAN_POINT('',(26.569860654335,-16.64768559931));
#553 = CARTESIAN_POINT('',(26.945281204171,-16.2557321339));
#554 = CARTESIAN_POINT('',(27.310371149747,-15.85413850855));
#555 = CARTESIAN_POINT('',(27.664843847669,-15.4432233465));
#556 = CARTESIAN_POINT('',(28.008424077176,-15.0233159302));
#557 = CARTESIAN_POINT('',(28.67327203939,-14.16619650052));
#558 = CARTESIAN_POINT('',(28.994541078236,-13.72898280328));
#559 = CARTESIAN_POINT('',(29.304391499846,-13.28345516081));
#560 = CARTESIAN_POINT('',(29.602572812434,-12.82996203726));
#561 = CARTESIAN_POINT('',(29.888847689253,-12.36886030968));
#562 = CARTESIAN_POINT('',(30.162991968601,-11.90051526799));
#563 = CARTESIAN_POINT('',(30.424794653816,-11.42530061502));
#564 = CARTESIAN_POINT('',(30.91472594821,-10.47850670915));
#565 = CARTESIAN_POINT('',(31.143705309578,-10.00736548292));
#566 = CARTESIAN_POINT('',(31.360818112398,-9.530518708779));
#567 = CARTESIAN_POINT('',(31.565899031994,-9.048315464135));
#568 = CARTESIAN_POINT('',(31.758795303994,-8.561109982868));
#569 = CARTESIAN_POINT('',(31.939366724334,-8.069261655312));
#570 = CARTESIAN_POINT('',(32.107485649253,-7.573135028258));
#571 = CARTESIAN_POINT('',(32.424143770785,-6.555206245147));
#572 = CARTESIAN_POINT('',(32.57176984659,-6.03311798238));
#573 = CARTESIAN_POINT('',(32.70578749458,-5.507245912384));
#574 = CARTESIAN_POINT('',(32.82608426534,-4.978004195183));
#575 = CARTESIAN_POINT('',(32.932562988186,-4.445810255098));
#576 = CARTESIAN_POINT('',(33.025141771158,-3.911084780749));
#577 = CARTESIAN_POINT('',(33.103754001025,-3.374251725049));
#578 = CARTESIAN_POINT('',(33.23294273114,-2.297224890841));
#579 = CARTESIAN_POINT('',(33.283519485189,-1.757028996441));
#580 = CARTESIAN_POINT('',(33.320027448474,-1.215577860518));
#581 = CARTESIAN_POINT('',(33.342431081346,-0.673299163246));
#582 = CARTESIAN_POINT('',(33.350710461452,-0.130621026459));
#583 = CARTESIAN_POINT('',(33.34486128374,0.412027986343));
#584 = CARTESIAN_POINT('',(33.324894860459,0.954218869998));
#585 = CARTESIAN_POINT('',(33.259130152742,1.999494320709));
#586 = CARTESIAN_POINT('',(33.215208252068,2.502698757316));
#587 = CARTESIAN_POINT('',(33.159094272242,3.004789077956));
#588 = CARTESIAN_POINT('',(33.090821678064,3.505420600192));
#589 = CARTESIAN_POINT('',(33.010435546027,4.004250368698));
#590 = CARTESIAN_POINT('',(32.917992564314,4.500937155259));
#591 = CARTESIAN_POINT('',(32.8135610328,4.995141458767));
#592 = CARTESIAN_POINT('',(32.572262964652,6.014308278746));
#593 = CARTESIAN_POINT('',(32.433566383954,6.538839374945));
#594 = CARTESIAN_POINT('',(32.281230342924,7.059700099687));
#595 = CARTESIAN_POINT('',(32.115368876232,7.576476726624));
#596 = CARTESIAN_POINT('',(31.936110831253,8.088760497196));
#597 = CARTESIAN_POINT('',(31.743599868065,8.596147620631));
#598 = CARTESIAN_POINT('',(31.537994459453,9.098239273944));
#599 = CARTESIAN_POINT('',(31.100941364393,10.091043948434));
#600 = CARTESIAN_POINT('',(30.869492819323,10.581758920044));
#601 = CARTESIAN_POINT('',(30.625295704854,11.066392733619));
#602 = CARTESIAN_POINT('',(30.368537137434,11.544559175705));
#603 = CARTESIAN_POINT('',(30.099417900802,12.015879602544));
#604 = CARTESIAN_POINT('',(29.818152445989,12.479982940072));
#605 = CARTESIAN_POINT('',(29.524968891319,12.936505683917));
#606 = CARTESIAN_POINT('',(28.91524919148,13.833678140706));
#607 = CARTESIAN_POINT('',(28.598711848475,14.274329616205));
#608 = CARTESIAN_POINT('',(28.270738926908,14.706690491741));
#609 = CARTESIAN_POINT('',(27.931584429657,15.130414854123));
#610 = CARTESIAN_POINT('',(27.581514428961,15.545166711134));
#611 = CARTESIAN_POINT('',(27.220807066417,15.950619991527));
#612 = CARTESIAN_POINT('',(26.849752552981,16.346458545026));
#613 = CARTESIAN_POINT('',(26.087553817645,17.118293771901));
#614 = CARTESIAN_POINT('',(25.696408098353,17.494291961599));
#615 = CARTESIAN_POINT('',(25.295518418656,17.860064607771));
#616 = CARTESIAN_POINT('',(24.88519725793,18.215317550534));
#617 = CARTESIAN_POINT('',(24.465767167367,18.559768573775));
#618 = CARTESIAN_POINT('',(24.037560769977,18.893147405151));
#619 = CARTESIAN_POINT('',(23.600920760588,19.215195716087));
#620 = CARTESIAN_POINT('',(22.711479077388,19.836138565131));
#621 = CARTESIAN_POINT('',(22.258675656209,20.135034323123));
#622 = CARTESIAN_POINT('',(21.798142511315,20.42210815758));
#623 = CARTESIAN_POINT('',(21.330240252517,20.697127401438));
#624 = CARTESIAN_POINT('',(20.855337230423,20.959872958752));
#625 = CARTESIAN_POINT('',(20.373809536445,21.210139304687));
#626 = CARTESIAN_POINT('',(19.886041002794,21.447734485522));
#627 = CARTESIAN_POINT('',(18.898805421198,21.897225793585));
#628 = CARTESIAN_POINT('',(18.399336433763,22.109122803868));
#629 = CARTESIAN_POINT('',(17.894407887286,22.307992929647));
#630 = CARTESIAN_POINT('',(17.384416582368,22.493672700193));
#631 = CARTESIAN_POINT('',(16.8697644731,22.6660133939));
#632 = CARTESIAN_POINT('',(16.35085866706,22.824881038286));
#633 = CARTESIAN_POINT('',(15.828111425315,22.970156409996));
#634 = CARTESIAN_POINT('',(14.775768910673,23.233313704154));
#635 = CARTESIAN_POINT('',(14.246171570377,23.351196143593));
#636 = CARTESIAN_POINT('',(13.713565599474,23.455278052366));
#637 = CARTESIAN_POINT('',(13.178370851452,23.545470568524));
#638 = CARTESIAN_POINT('',(12.641009575344,23.621700268913));
#639 = CARTESIAN_POINT('',(12.101906415733,23.683909169179));
#640 = CARTESIAN_POINT('',(11.561488412748,23.732054723766));
#641 = CARTESIAN_POINT('',(10.478881594268,23.800164973903));
#642 = CARTESIAN_POINT('',(9.936690651919,23.820129803259));
#643 = CARTESIAN_POINT('',(9.394041621924,23.825977385699));
#644 = CARTESIAN_POINT('',(8.851363509479,23.817696410236));
#645 = CARTESIAN_POINT('',(8.30908487807,23.795291183181));
#646 = CARTESIAN_POINT('',(7.767633849476,23.758781628145));
#647 = CARTESIAN_POINT('',(7.227438103763,23.708203286037));
#648 = CARTESIAN_POINT('',(6.168981019508,23.581238825618));
#649 = CARTESIAN_POINT('',(5.650603770656,23.505802555429));
#650 = CARTESIAN_POINT('',(5.134177569269,23.417344691538));
#651 = CARTESIAN_POINT('',(4.620084056752,23.315924707729));
#652 = CARTESIAN_POINT('',(4.108702079375,23.201615364532));
#653 = CARTESIAN_POINT('',(3.600407688276,23.07450270922));
#654 = CARTESIAN_POINT('',(3.09557413946,22.934686075813));
#655 = CARTESIAN_POINT('',(2.07567675038,22.624427007994));
#656 = CARTESIAN_POINT('',(1.56088952684,22.453068533276));
#657 = CARTESIAN_POINT('',(1.050621860919,22.268327977116));
#658 = CARTESIAN_POINT('',(0.545279502272,22.070345127255));
#659 = CARTESIAN_POINT('',(4.526231247532E-02,21.85927424298));
#660 = CARTESIAN_POINT('',(-0.44903573498,21.63528405512));
#661 = CARTESIAN_POINT('',(-0.937226554682,21.398557766053));
#662 = CARTESIAN_POINT('',(-1.884019016246,20.908623680546));
#663 = CARTESIAN_POINT('',(-2.343062168264,20.656264833715));
#664 = CARTESIAN_POINT('',(-2.795713551502,20.392394523874));
#665 = CARTESIAN_POINT('',(-3.241636587349,20.117202229599));
#666 = CARTESIAN_POINT('',(-3.680501972437,19.830888893375));
#667 = CARTESIAN_POINT('',(-4.111987678638,19.533666921598));
#668 = CARTESIAN_POINT('',(-4.535778953066,19.22576018457));
#669 = CARTESIAN_POINT('',(-5.367357705706,18.589047877985));
#670 = CARTESIAN_POINT('',(-5.77514660386,18.260241221224));
#671 = CARTESIAN_POINT('',(-6.17462762297,17.92121949547));
#672 = CARTESIAN_POINT('',(-6.56550254286,17.572228163587));
#673 = CARTESIAN_POINT('',(-6.947482312746,17.213522702065));
#674 = CARTESIAN_POINT('',(-7.320287051236,16.845368601011));
#675 = CARTESIAN_POINT('',(-7.683646046328,16.468041364155));
#676 = CARTESIAN_POINT('',(-8.403579877209,15.681818334367));
#677 = CARTESIAN_POINT('',(-8.759450314903,15.272274876414));
#678 = CARTESIAN_POINT('',(-9.104618545729,14.853513540562));
#679 = CARTESIAN_POINT('',(-9.438806481654,14.425861191377));
#680 = CARTESIAN_POINT('',(-9.761748469381,13.98965415241));
#681 = CARTESIAN_POINT('',(-10.07319129034,13.545238206204));
#682 = CARTESIAN_POINT('',(-10.37289416073,13.09296859429));
#683 = CARTESIAN_POINT('',(-10.94836334108,12.173451464453));
#684 = CARTESIAN_POINT('',(-11.22413078159,11.706202140077));
#685 = CARTESIAN_POINT('',(-11.48770285547,11.23182683945));
#686 = CARTESIAN_POINT('',(-11.73886530812,10.750697407115));
#687 = CARTESIAN_POINT('',(-11.97741782785,10.263192736764));
#688 = CARTESIAN_POINT('',(-12.20317404586,9.769698771245));
#689 = CARTESIAN_POINT('',(-12.41596153627,9.270608502554));
#690 = CARTESIAN_POINT('',(-12.81528213862,8.262035458036));
#691 = CARTESIAN_POINT('',(-13.00181603506,7.752550700799));
#692 = CARTESIAN_POINT('',(-13.1750651887,7.238267807111));
#693 = CARTESIAN_POINT('',(-13.33488627224,6.719591289872));
#694 = CARTESIAN_POINT('',(-13.48115094784,6.1969300679));
#695 = CARTESIAN_POINT('',(-13.61374586708,5.670697465937));
#696 = CARTESIAN_POINT('',(-13.73257267095,5.141311214643));
#697 = CARTESIAN_POINT('',(-13.94252335388,4.077075695443));
#698 = CARTESIAN_POINT('',(-14.03364764541,3.542224336774));
#699 = CARTESIAN_POINT('',(-14.11083767035,3.005061545784));
#700 = CARTESIAN_POINT('',(-14.17402577424,2.466011110473));
#701 = CARTESIAN_POINT('',(-14.22315984227,1.925498435654));
#702 = CARTESIAN_POINT('',(-14.25820329932,1.383950542949));
#703 = CARTESIAN_POINT('',(-14.27913510989,0.841796070789));
#704 = CARTESIAN_POINT('',(-14.29276449237,-0.24286552138));
#705 = CARTESIAN_POINT('',(-14.28546209106,-0.78537477228));
#706 = CARTESIAN_POINT('',(-14.26403725723,-1.327632220795));
#707 = CARTESIAN_POINT('',(-14.22850024924,-1.869208835269));
#708 = CARTESIAN_POINT('',(-14.17887690086,-2.409676809877));
#709 = CARTESIAN_POINT('',(-14.11520862122,-2.948609564627));
#710 = CARTESIAN_POINT('',(-14.03755239483,-3.485581745358));
#711 = CARTESIAN_POINT('',(-13.85440921359,-4.55475670988));
#712 = CARTESIAN_POINT('',(-13.74892189895,-5.086961594137));
#713 = CARTESIAN_POINT('',(-13.62959157381,-5.616359778377));
#714 = CARTESIAN_POINT('',(-13.49650606972,-6.14253119235));
#715 = CARTESIAN_POINT('',(-13.34976831365,-6.665059793695));
#716 = CARTESIAN_POINT('',(-13.18949632795,-7.183533567937));
#717 = CARTESIAN_POINT('',(-13.01582323041,-7.697544528489));
#718 = CARTESIAN_POINT('',(-12.6419712811,-8.71583292064));
#719 = CARTESIAN_POINT('',(-12.44179169488,-9.220112352736));
#720 = CARTESIAN_POINT('',(-12.22850685657,-9.719123115869));
#721 = CARTESIAN_POINT('',(-12.00227926285,-10.21246800955));
#722 = CARTESIAN_POINT('',(-11.76328552602,-10.69975652987));
#723 = CARTESIAN_POINT('',(-11.51171637401,-11.18060486951));
#724 = CARTESIAN_POINT('',(-11.24777665038,-11.65463591772));
#725 = CARTESIAN_POINT('',(-10.69559401776,-12.58832262632));
#726 = CARTESIAN_POINT('',(-10.40735002397,-13.04798012101));
#727 = CARTESIAN_POINT('',(-10.10717244605,-13.50008142126));
#728 = CARTESIAN_POINT('',(-9.79529306558,-13.94426534748));
#729 = CARTESIAN_POINT('',(-9.471956332642,-14.38017986366));
#730 = CARTESIAN_POINT('',(-9.137419365802,-14.80748207731));
#731 = CARTESIAN_POINT('',(-8.791951952114,-15.22583823952));
#732 = CARTESIAN_POINT('',(-8.079721176761,-16.04400928046));
#733 = CARTESIAN_POINT('',(-7.71295641587,-16.44382576655));
#734 = CARTESIAN_POINT('',(-7.335824854864,-16.83404871522));
#735 = CARTESIAN_POINT('',(-6.94861988606,-17.2143649263));
#736 = CARTESIAN_POINT('',(-6.551645703673,-17.58447248742));
#737 = CARTESIAN_POINT('',(-6.145217303816,-17.94408077399));
#738 = CARTESIAN_POINT('',(-5.729660484501,-18.29291044918));
#739 = CARTESIAN_POINT('',(-3.739827025195,-19.87682504036));
#740 = CARTESIAN_POINT('',(-2.054104663273,-20.97307858391));
#741 = CARTESIAN_POINT('',(-0.265708859012,-21.90516056085));
#742 = CARTESIAN_POINT('',(1.606507796226,-22.66221066841));
#743 = CARTESIAN_POINT('',(3.542796145358,-23.23588958413));
#744 = CARTESIAN_POINT('',(5.522510984411,-23.62042244432));
#745 = CARTESIAN_POINT('',(7.524138545663,-23.81256514972));
#746 = CARTESIAN_POINT('',(9.52503500192,-23.8125621901));
#747 = ( GEOMETRIC_REPRESENTATION_CONTEXT(2) 
PARAMETRIC_REPRESENTATION_CONTEXT() REPRESENTATION_CONTEXT('2D SPACE',''
  ) );
#748 = ORIENTED_EDGE('',*,*,#749,.T.);
#749 = EDGE_CURVE('',#22,#750,#752,.T.);
#750 = VERTEX_POINT('',#751);
#751 = CARTESIAN_POINT('',(-6.141355540333E-02,4.307269304832,
    616.94015082909));
#752 = SEAM_CURVE('',#753,(#780,#787),.PCURVE_S1.);
#753 = B_SPLINE_CURVE_WITH_KNOTS('',3,(#754,#755,#756,#757,#758,#759,
    #760,#761,#762,#763,#764,#765,#766,#767,#768,#769,#770,#771,#772,
    #773,#774,#775,#776,#777,#778,#779),.UNSPECIFIED.,.F.,.F.,(4,1,1,1,1
    ,1,1,1,1,1,1,1,1,1,1,1,1,1,1,1,1,1,1,4),(0.,1.,2.,3.,4.,5.,6.,7.,8.,
    9.,10.,11.,12.,13.,14.,15.,16.,17.,18.,19.,20.,21.,22.,23.),
  .QUASI_UNIFORM_KNOTS.);
#754 = CARTESIAN_POINT('',(4.860370150267,4.30727547987,313.22307991682)
  );
#755 = CARTESIAN_POINT('',(5.425451329722,4.307276188829,319.59977981325
    ));
#756 = CARTESIAN_POINT('',(5.871022721564,4.307276747847,334.35281024708
    ));
#757 = CARTESIAN_POINT('',(6.645078144767,4.30727771899,335.43642627797)
  );
#758 = CARTESIAN_POINT('',(11.035416695346,4.307283227182,
    345.95316479097));
#759 = CARTESIAN_POINT('',(15.363202317512,4.307288656893,
    359.76444800681));
#760 = CARTESIAN_POINT('',(18.056537493525,4.307292035996,
    369.16722420882));
#761 = CARTESIAN_POINT('',(21.135328511082,4.307295898696,
    383.67615617384));
#762 = CARTESIAN_POINT('',(22.8434076547,4.307298041679,395.88001223497)
  );
#763 = CARTESIAN_POINT('',(23.43118659731,4.307298779115,401.9576364747)
  );
#764 = CARTESIAN_POINT('',(24.101245303544,4.30729961978,410.8018962844)
  );
#765 = CARTESIAN_POINT('',(24.137558328566,4.307299665331,
    439.44099526558));
#766 = CARTESIAN_POINT('',(23.799427500837,4.307299241099,
    464.07022202809));
#767 = CARTESIAN_POINT('',(23.352141284984,4.307298679923,
    474.76397318975));
#768 = CARTESIAN_POINT('',(22.343571932407,4.307297414549,
    493.56800255762));
#769 = CARTESIAN_POINT('',(19.389933936704,4.307293708856,
    523.93858688629));
#770 = CARTESIAN_POINT('',(16.419690854353,4.307289982331,
    547.51589871263));
#771 = CARTESIAN_POINT('',(13.228995742188,4.307285979224,
    568.25248533089));
#772 = CARTESIAN_POINT('',(9.902384980232,4.307281805595,586.18241940869
    ));
#773 = CARTESIAN_POINT('',(7.15049685818,4.307278353025,598.81985279095)
  );
#774 = CARTESIAN_POINT('',(5.035101807856,4.307275699012,607.07611381));
#775 = CARTESIAN_POINT('',(3.389156179896,4.307273633978,612.63598804424
    ));
#776 = CARTESIAN_POINT('',(1.982042232297,4.307271868588,615.42392350124
    ));
#777 = CARTESIAN_POINT('',(1.306338708501,4.307271020838,616.24793091914
    ));
#778 = CARTESIAN_POINT('',(0.333891286629,4.307269800789,616.94015075582
    ));
#779 = CARTESIAN_POINT('',(-6.141355540325E-02,4.307269304832,
    616.94015082909));
#780 = PCURVE('',#253,#781);
#781 = DEFINITIONAL_REPRESENTATION('',(#782),#786);
#782 = LINE('',#783,#784);
#783 = CARTESIAN_POINT('',(4.1389E-13,0.));
#784 = VECTOR('',#785,1.);
#785 = DIRECTION('',(0.,1.));
#786 = ( GEOMETRIC_REPRESENTATION_CONTEXT(2) 
PARAMETRIC_REPRESENTATION_CONTEXT() REPRESENTATION_CONTEXT('2D SPACE',''
  ) );
#787 = PCURVE('',#253,#788);
#788 = DEFINITIONAL_REPRESENTATION('',(#789),#793);
#789 = LINE('',#790,#791);
#790 = CARTESIAN_POINT('',(6.28318530718,0.));
#791 = VECTOR('',#792,1.);
#792 = DIRECTION('',(0.,1.));
#793 = ( GEOMETRIC_REPRESENTATION_CONTEXT(2) 
PARAMETRIC_REPRESENTATION_CONTEXT() REPRESENTATION_CONTEXT('2D SPACE',''
  ) );
#794 = ORIENTED_EDGE('',*,*,#749,.F.);
#795 = ADVANCED_FACE('',(#796,#799,#830),#514,.F.);
#796 = FACE_BOUND('',#797,.F.);
#797 = EDGE_LOOP('',(#798));
#798 = ORIENTED_EDGE('',*,*,#21,.T.);
#799 = FACE_BOUND('',#800,.F.);
#800 = EDGE_LOOP('',(#801));
#801 = ORIENTED_EDGE('',*,*,#802,.F.);
#802 = EDGE_CURVE('',#803,#803,#805,.T.);
#803 = VERTEX_POINT('',#804);
#804 = CARTESIAN_POINT('',(-1.811176823314,-5.217730694828,
    463.03692094527));
#805 = SURFACE_CURVE('',#806,(#811,#818),.PCURVE_S1.);
#806 = CIRCLE('',#807,1.75);
#807 = AXIS2_PLACEMENT_3D('',#808,#809,#810);
#808 = CARTESIAN_POINT('',(-6.117682331427E-02,-5.217730694828,
    463.03692062091));
#809 = DIRECTION('',(1.8535120683E-07,-4.047E-14,1.));
#810 = DIRECTION('',(-1.,-6.01853107621E-36,1.8535120683E-07));
#811 = PCURVE('',#514,#812);
#812 = DEFINITIONAL_REPRESENTATION('',(#813),#817);
#813 = CIRCLE('',#814,1.75);
#814 = AXIS2_PLACEMENT_2D('',#815,#816);
#815 = CARTESIAN_POINT('',(-8.881784197001E-16,6.175615574477E-16));
#816 = DIRECTION('',(-2.152760554264E-07,1.));
#817 = ( GEOMETRIC_REPRESENTATION_CONTEXT(2) 
PARAMETRIC_REPRESENTATION_CONTEXT() REPRESENTATION_CONTEXT('2D SPACE',''
  ) );
#818 = PCURVE('',#819,#824);
#819 = CYLINDRICAL_SURFACE('',#820,1.75);
#820 = AXIS2_PLACEMENT_3D('',#821,#822,#823);
#821 = CARTESIAN_POINT('',(-6.117917727456E-02,-5.217730694828,
    450.33692082904));
#822 = DIRECTION('',(1.8535120683E-07,-4.047E-14,1.));
#823 = DIRECTION('',(-1.,-7.956564633834E-36,1.8535120683E-07));
#824 = DEFINITIONAL_REPRESENTATION('',(#825),#829);
#825 = LINE('',#826,#827);
#826 = CARTESIAN_POINT('',(-6.28318530718,12.699999791874));
#827 = VECTOR('',#828,1.);
#828 = DIRECTION('',(1.,-0.));
#829 = ( GEOMETRIC_REPRESENTATION_CONTEXT(2) 
PARAMETRIC_REPRESENTATION_CONTEXT() REPRESENTATION_CONTEXT('2D SPACE',''
  ) );
#830 = FACE_BOUND('',#831,.F.);
#831 = EDGE_LOOP('',(#832));
#832 = ORIENTED_EDGE('',*,*,#833,.F.);
#833 = EDGE_CURVE('',#834,#834,#836,.T.);
#834 = VERTEX_POINT('',#835);
#835 = CARTESIAN_POINT('',(-1.811176823314,13.832269305172,
    463.03692094528));
#836 = SURFACE_CURVE('',#837,(#842,#849),.PCURVE_S1.);
#837 = CIRCLE('',#838,1.75);
#838 = AXIS2_PLACEMENT_3D('',#839,#840,#841);
#839 = CARTESIAN_POINT('',(-6.117682331427E-02,13.832269305172,
    463.03692062091));
#840 = DIRECTION('',(1.8535120683E-07,-4.047E-14,1.));
#841 = DIRECTION('',(-1.,-6.01853107621E-36,1.8535120683E-07));
#842 = PCURVE('',#514,#843);
#843 = DEFINITIONAL_REPRESENTATION('',(#844),#848);
#844 = CIRCLE('',#845,1.75);
#845 = AXIS2_PLACEMENT_2D('',#846,#847);
#846 = CARTESIAN_POINT('',(19.05,4.101008856491E-06));
#847 = DIRECTION('',(-2.152760554264E-07,1.));
#848 = ( GEOMETRIC_REPRESENTATION_CONTEXT(2) 
PARAMETRIC_REPRESENTATION_CONTEXT() REPRESENTATION_CONTEXT('2D SPACE',''
  ) );
#849 = PCURVE('',#850,#855);
#850 = CYLINDRICAL_SURFACE('',#851,1.75);
#851 = AXIS2_PLACEMENT_3D('',#852,#853,#854);
#852 = CARTESIAN_POINT('',(-6.117917727456E-02,13.832269305172,
    450.33692082904));
#853 = DIRECTION('',(1.8535120683E-07,-4.047E-14,1.));
#854 = DIRECTION('',(-1.,-7.956564633834E-36,1.8535120683E-07));
#855 = DEFINITIONAL_REPRESENTATION('',(#856),#860);
#856 = LINE('',#857,#858);
#857 = CARTESIAN_POINT('',(-6.28318530718,12.699999791874));
#858 = VECTOR('',#859,1.);
#859 = DIRECTION('',(1.,-0.));
#860 = ( GEOMETRIC_REPRESENTATION_CONTEXT(2) 
PARAMETRIC_REPRESENTATION_CONTEXT() REPRESENTATION_CONTEXT('2D SPACE',''
  ) );
#861 = ADVANCED_FACE('',(#862),#819,.F.);
#862 = FACE_BOUND('',#863,.T.);
#863 = EDGE_LOOP('',(#864,#865,#887,#914));
#864 = ORIENTED_EDGE('',*,*,#802,.F.);
#865 = ORIENTED_EDGE('',*,*,#866,.T.);
#866 = EDGE_CURVE('',#803,#867,#869,.T.);
#867 = VERTEX_POINT('',#868);
#868 = CARTESIAN_POINT('',(-1.811174469354,-5.217730694829,
    475.7369211534));
#869 = SEAM_CURVE('',#870,(#873,#880),.PCURVE_S1.);
#870 = B_SPLINE_CURVE_WITH_KNOTS('',1,(#871,#872),.UNSPECIFIED.,.F.,.F.,
  (2,2),(-0.233523034057,25.4),.PIECEWISE_BEZIER_KNOTS.);
#871 = CARTESIAN_POINT('',(-1.811179220558,-5.217730694828,
    450.10339811934));
#872 = CARTESIAN_POINT('',(-1.811174469354,-5.217730694829,
    475.7369211534));
#873 = PCURVE('',#819,#874);
#874 = DEFINITIONAL_REPRESENTATION('',(#875),#879);
#875 = LINE('',#876,#877);
#876 = CARTESIAN_POINT('',(-0.,0.));
#877 = VECTOR('',#878,1.);
#878 = DIRECTION('',(-0.,1.));
#879 = ( GEOMETRIC_REPRESENTATION_CONTEXT(2) 
PARAMETRIC_REPRESENTATION_CONTEXT() REPRESENTATION_CONTEXT('2D SPACE',''
  ) );
#880 = PCURVE('',#819,#881);
#881 = DEFINITIONAL_REPRESENTATION('',(#882),#886);
#882 = LINE('',#883,#884);
#883 = CARTESIAN_POINT('',(-6.28318530718,0.));
#884 = VECTOR('',#885,1.);
#885 = DIRECTION('',(-0.,1.));
#886 = ( GEOMETRIC_REPRESENTATION_CONTEXT(2) 
PARAMETRIC_REPRESENTATION_CONTEXT() REPRESENTATION_CONTEXT('2D SPACE',''
  ) );
#887 = ORIENTED_EDGE('',*,*,#888,.F.);
#888 = EDGE_CURVE('',#867,#867,#889,.T.);
#889 = SURFACE_CURVE('',#890,(#895,#902),.PCURVE_S1.);
#890 = CIRCLE('',#891,1.75);
#891 = AXIS2_PLACEMENT_3D('',#892,#893,#894);
#892 = CARTESIAN_POINT('',(-6.117446935391E-02,-5.217730694829,
    475.73692082904));
#893 = DIRECTION('',(-1.8535120683E-07,4.047E-14,-1.));
#894 = DIRECTION('',(-1.,1.486660321831E-28,1.8535120683E-07));
#895 = PCURVE('',#819,#896);
#896 = DEFINITIONAL_REPRESENTATION('',(#897),#901);
#897 = LINE('',#898,#899);
#898 = CARTESIAN_POINT('',(-0.,25.4));
#899 = VECTOR('',#900,1.);
#900 = DIRECTION('',(-1.,0.));
#901 = ( GEOMETRIC_REPRESENTATION_CONTEXT(2) 
PARAMETRIC_REPRESENTATION_CONTEXT() REPRESENTATION_CONTEXT('2D SPACE',''
  ) );
#902 = PCURVE('',#903,#908);
#903 = CONICAL_SURFACE('',#904,1.75,1.029744258677);
#904 = AXIS2_PLACEMENT_3D('',#905,#906,#907);
#905 = CARTESIAN_POINT('',(-6.117446935391E-02,-5.217730694829,
    475.73692082904));
#906 = DIRECTION('',(-1.8535120683E-07,4.047E-14,-1.));
#907 = DIRECTION('',(-1.,1.486660321831E-28,1.8535120683E-07));
#908 = DEFINITIONAL_REPRESENTATION('',(#909),#913);
#909 = LINE('',#910,#911);
#910 = CARTESIAN_POINT('',(0.,-9.802687471293E-17));
#911 = VECTOR('',#912,1.);
#912 = DIRECTION('',(1.,-0.));
#913 = ( GEOMETRIC_REPRESENTATION_CONTEXT(2) 
PARAMETRIC_REPRESENTATION_CONTEXT() REPRESENTATION_CONTEXT('2D SPACE',''
  ) );
#914 = ORIENTED_EDGE('',*,*,#866,.F.);
#915 = ADVANCED_FACE('',(#916),#850,.F.);
#916 = FACE_BOUND('',#917,.T.);
#917 = EDGE_LOOP('',(#918,#919,#941,#968));
#918 = ORIENTED_EDGE('',*,*,#833,.F.);
#919 = ORIENTED_EDGE('',*,*,#920,.T.);
#920 = EDGE_CURVE('',#834,#921,#923,.T.);
#921 = VERTEX_POINT('',#922);
#922 = CARTESIAN_POINT('',(-1.811174469354,13.832269305171,
    475.7369211534));
#923 = SEAM_CURVE('',#924,(#927,#934),.PCURVE_S1.);
#924 = B_SPLINE_CURVE_WITH_KNOTS('',1,(#925,#926),.UNSPECIFIED.,.F.,.F.,
  (2,2),(-0.233516366936,25.4),.PIECEWISE_BEZIER_KNOTS.);
#925 = CARTESIAN_POINT('',(-1.811179220557,13.832269305172,
    450.10340478647));
#926 = CARTESIAN_POINT('',(-1.811174469354,13.832269305171,
    475.7369211534));
#927 = PCURVE('',#850,#928);
#928 = DEFINITIONAL_REPRESENTATION('',(#929),#933);
#929 = LINE('',#930,#931);
#930 = CARTESIAN_POINT('',(-0.,0.));
#931 = VECTOR('',#932,1.);
#932 = DIRECTION('',(-0.,1.));
#933 = ( GEOMETRIC_REPRESENTATION_CONTEXT(2) 
PARAMETRIC_REPRESENTATION_CONTEXT() REPRESENTATION_CONTEXT('2D SPACE',''
  ) );
#934 = PCURVE('',#850,#935);
#935 = DEFINITIONAL_REPRESENTATION('',(#936),#940);
#936 = LINE('',#937,#938);
#937 = CARTESIAN_POINT('',(-6.28318530718,0.));
#938 = VECTOR('',#939,1.);
#939 = DIRECTION('',(-0.,1.));
#940 = ( GEOMETRIC_REPRESENTATION_CONTEXT(2) 
PARAMETRIC_REPRESENTATION_CONTEXT() REPRESENTATION_CONTEXT('2D SPACE',''
  ) );
#941 = ORIENTED_EDGE('',*,*,#942,.F.);
#942 = EDGE_CURVE('',#921,#921,#943,.T.);
#943 = SURFACE_CURVE('',#944,(#949,#956),.PCURVE_S1.);
#944 = CIRCLE('',#945,1.75);
#945 = AXIS2_PLACEMENT_3D('',#946,#947,#948);
#946 = CARTESIAN_POINT('',(-6.117446935391E-02,13.832269305171,
    475.73692082904));
#947 = DIRECTION('',(-1.8535120683E-07,4.047E-14,-1.));
#948 = DIRECTION('',(-1.,1.486660321831E-28,1.8535120683E-07));
#949 = PCURVE('',#850,#950);
#950 = DEFINITIONAL_REPRESENTATION('',(#951),#955);
#951 = LINE('',#952,#953);
#952 = CARTESIAN_POINT('',(-0.,25.4));
#953 = VECTOR('',#954,1.);
#954 = DIRECTION('',(-1.,0.));
#955 = ( GEOMETRIC_REPRESENTATION_CONTEXT(2) 
PARAMETRIC_REPRESENTATION_CONTEXT() REPRESENTATION_CONTEXT('2D SPACE',''
  ) );
#956 = PCURVE('',#957,#962);
#957 = CONICAL_SURFACE('',#958,1.75,1.029744258677);
#958 = AXIS2_PLACEMENT_3D('',#959,#960,#961);
#959 = CARTESIAN_POINT('',(-6.117446935391E-02,13.832269305171,
    475.73692082904));
#960 = DIRECTION('',(-1.8535120683E-07,4.047E-14,-1.));
#961 = DIRECTION('',(-1.,1.486660321831E-28,1.8535120683E-07));
#962 = DEFINITIONAL_REPRESENTATION('',(#963),#967);
#963 = LINE('',#964,#965);
#964 = CARTESIAN_POINT('',(0.,-9.802687471293E-17));
#965 = VECTOR('',#966,1.);
#966 = DIRECTION('',(1.,-0.));
#967 = ( GEOMETRIC_REPRESENTATION_CONTEXT(2) 
PARAMETRIC_REPRESENTATION_CONTEXT() REPRESENTATION_CONTEXT('2D SPACE',''
  ) );
#968 = ORIENTED_EDGE('',*,*,#920,.F.);
#969 = ADVANCED_FACE('',(#970),#903,.F.);
#970 = FACE_BOUND('',#971,.T.);
#971 = EDGE_LOOP('',(#972,#973,#996));
#972 = ORIENTED_EDGE('',*,*,#888,.T.);
#973 = ORIENTED_EDGE('',*,*,#974,.T.);
#974 = EDGE_CURVE('',#867,#975,#977,.T.);
#975 = VERTEX_POINT('',#976);
#976 = CARTESIAN_POINT('',(-6.117427445599E-02,-5.217730694829,
    476.78842691233));
#977 = SEAM_CURVE('',#978,(#982,#989),.PCURVE_S1.);
#978 = LINE('',#979,#980);
#979 = CARTESIAN_POINT('',(-1.811174469354,-5.217730694829,
    475.7369211534));
#980 = VECTOR('',#981,1.);
#981 = DIRECTION('',(0.857167396165,-2.084359089161E-14,0.515037916033)
  );
#982 = PCURVE('',#903,#983);
#983 = DEFINITIONAL_REPRESENTATION('',(#984),#988);
#984 = LINE('',#985,#986);
#985 = CARTESIAN_POINT('',(0.,-0.));
#986 = VECTOR('',#987,1.);
#987 = DIRECTION('',(0.,-1.));
#988 = ( GEOMETRIC_REPRESENTATION_CONTEXT(2) 
PARAMETRIC_REPRESENTATION_CONTEXT() REPRESENTATION_CONTEXT('2D SPACE',''
  ) );
#989 = PCURVE('',#903,#990);
#990 = DEFINITIONAL_REPRESENTATION('',(#991),#995);
#991 = LINE('',#992,#993);
#992 = CARTESIAN_POINT('',(6.28318530718,-0.));
#993 = VECTOR('',#994,1.);
#994 = DIRECTION('',(0.,-1.));
#995 = ( GEOMETRIC_REPRESENTATION_CONTEXT(2) 
PARAMETRIC_REPRESENTATION_CONTEXT() REPRESENTATION_CONTEXT('2D SPACE',''
  ) );
#996 = ORIENTED_EDGE('',*,*,#974,.F.);
#997 = ADVANCED_FACE('',(#998),#957,.F.);
#998 = FACE_BOUND('',#999,.T.);
#999 = EDGE_LOOP('',(#1000,#1001,#1024));
#1000 = ORIENTED_EDGE('',*,*,#942,.T.);
#1001 = ORIENTED_EDGE('',*,*,#1002,.T.);
#1002 = EDGE_CURVE('',#921,#1003,#1005,.T.);
#1003 = VERTEX_POINT('',#1004);
#1004 = CARTESIAN_POINT('',(-6.117427445599E-02,13.832269305171,
    476.78842691233));
#1005 = SEAM_CURVE('',#1006,(#1010,#1017),.PCURVE_S1.);
#1006 = LINE('',#1007,#1008);
#1007 = CARTESIAN_POINT('',(-1.811174469354,13.832269305171,
    475.7369211534));
#1008 = VECTOR('',#1009,1.);
#1009 = DIRECTION('',(0.857167396165,-2.084359089161E-14,0.515037916033)
  );
#1010 = PCURVE('',#957,#1011);
#1011 = DEFINITIONAL_REPRESENTATION('',(#1012),#1016);
#1012 = LINE('',#1013,#1014);
#1013 = CARTESIAN_POINT('',(0.,-0.));
#1014 = VECTOR('',#1015,1.);
#1015 = DIRECTION('',(0.,-1.));
#1016 = ( GEOMETRIC_REPRESENTATION_CONTEXT(2) 
PARAMETRIC_REPRESENTATION_CONTEXT() REPRESENTATION_CONTEXT('2D SPACE',''
  ) );
#1017 = PCURVE('',#957,#1018);
#1018 = DEFINITIONAL_REPRESENTATION('',(#1019),#1023);
#1019 = LINE('',#1020,#1021);
#1020 = CARTESIAN_POINT('',(6.28318530718,-0.));
#1021 = VECTOR('',#1022,1.);
#1022 = DIRECTION('',(0.,-1.));
#1023 = ( GEOMETRIC_REPRESENTATION_CONTEXT(2) 
PARAMETRIC_REPRESENTATION_CONTEXT() REPRESENTATION_CONTEXT('2D SPACE',''
  ) );
#1024 = ORIENTED_EDGE('',*,*,#1002,.F.);
#1025 = ( GEOMETRIC_REPRESENTATION_CONTEXT(3) 
GLOBAL_UNCERTAINTY_ASSIGNED_CONTEXT((#1029)) 
GLOBAL_UNIT_ASSIGNED_CONTEXT((#1026,#1027,#1028)) REPRESENTATION_CONTEXT
('Context #1','3D Context with UNIT and UNCERTAINTY') );
#1026 = ( LENGTH_UNIT() NAMED_UNIT(*) SI_UNIT(.MILLI.,.METRE.) );
#1027 = ( NAMED_UNIT(*) PLANE_ANGLE_UNIT() SI_UNIT($,.RADIAN.) );
#1028 = ( NAMED_UNIT(*) SI_UNIT($,.STERADIAN.) SOLID_ANGLE_UNIT() );
#1029 = UNCERTAINTY_MEASURE_WITH_UNIT(LENGTH_MEASURE(5.E-06),#1026,
  'distance_accuracy_value','confusion accuracy');
#1030 = PRODUCT_RELATED_PRODUCT_CATEGORY('part',$,(#7));
#1031 = MECHANICAL_DESIGN_GEOMETRIC_PRESENTATION_REPRESENTATION('',(
    #1032),#1025);
#1032 = STYLED_ITEM('color',(#1033),#15);
#1033 = PRESENTATION_STYLE_ASSIGNMENT((#1034,#1040));
#1034 = SURFACE_STYLE_USAGE(.BOTH.,#1035);
#1035 = SURFACE_SIDE_STYLE('',(#1036));
#1036 = SURFACE_STYLE_FILL_AREA(#1037);
#1037 = FILL_AREA_STYLE('',(#1038));
#1038 = FILL_AREA_STYLE_COLOUR('',#1039);
#1039 = COLOUR_RGB('',0.447058818107,0.474509808674,0.501960817233);
#1040 = CURVE_STYLE('',#1041,POSITIVE_LENGTH_MEASURE(0.1),#1042);
#1041 = DRAUGHTING_PRE_DEFINED_CURVE_FONT('continuous');
#1042 = COLOUR_RGB('',9.803921802644E-02,9.803921802644E-02,
  9.803921802644E-02);
ENDSEC;
END-ISO-10303-21;
